# xmcd
#
# Track frame offsets: 
#        150
#        9670
#        19915
#        28985
#        36384
#        38938
#        61685
#        73952
#        85981
#        88195
#        92018
#        101762
#        112040
#        118781
#        131379
#        137353
#        138923
#        143119
#        153625
#        163137
#        170381
#        181904
#        187759
#        196017
#        209753
#        220352
#        228038
#        241729
#        255788
#        271419
#        287541
#        293046
#        304630
#        316576
#        327705
#        339116
#
# Disc length: 4677 seconds
#
# Revision: 0
# Processed by: cddbd v1.5.2PL0 Copyright (c) Steve Scherf et al.
# Submitted via: ExactAudioCopy v1.3
#
DISCID=02124324
DTITLE=Lefty Frizzell - CD10_Demo and Private Recordings 1940s-1950s
DYEAR=2018
DGENRE=Country
TTITLE0=I Hope You're Not Lonely When I'm Gone
TTITLE1=Darling I'm Missing You (Please Believe Me)
TTITLE2=I'll Never Cry Over You
TTITLE3=My Confession
TTITLE4=Intro
TTITLE5=My Baby And My Wife
TTITLE6=It's All Over Now
TTITLE7=Worried Mind
TTITLE8=You May Have Your Picture
TTITLE9=I Ain't Goin' Honky-Tonkin' Anymore (theme)
TTITLE10=Maiden's Prayer
TTITLE11=Wasting My Life Away
TTITLE12=You Nearly Lose Your Mind
TTITLE13=I'll Always Be Glad To Take You Back
TTITLE14=My Old Pal Of Yesterday
TTITLE15=Jimmie The Kid
TTITLE16=California Blues
TTITLE17=Mean Mama Blues
TTITLE18=I'll Be A Bachelor Till I Die
TTITLE19=I'm A Long Gone Daddy
TTITLE20=Yesterday's Mail
TTITLE21=Last Night I Heard You Crying In Your Sleep
TTITLE22=There'll Be No Teardrops Tonight
TTITLE23=I Love You A Thousand Ways
TTITLE24=If You're Ever Lonely Darling
TTITLE25=Lost Love Blues
TTITLE26=If You're Ever Lonely Darling
TTITLE27=I Love You A Thousand Ways
TTITLE28=Please Be Mine, Dear Blue Eyes
TTITLE29=I'm Yours If You Want Me
TTITLE30=Lost Love Blues
TTITLE31=If You've Got The Money
TTITLE32=Lost Love Blues
TTITLE33=Steppin' Out (take 1)
TTITLE34=Steppin' Out (take 2)
TTITLE35=Always In Love
EXTD=
EXTT0=
EXTT1=
EXTT2=
EXTT3=
EXTT4=
EXTT5=
EXTT6=
EXTT7=
EXTT8=
EXTT9=
EXTT10=
EXTT11=
EXTT12=
EXTT13=
EXTT14=
EXTT15=
EXTT16=
EXTT17=
EXTT18=
EXTT19=
EXTT20=
EXTT21=
EXTT22=
EXTT23=
EXTT24=
EXTT25=
EXTT26=
EXTT27=
EXTT28=
EXTT29=
EXTT30=
EXTT31=
EXTT32=
EXTT33=
EXTT34=
EXTT35=
PLAYORDER=
